<?xml version="1.0" encoding="UTF-8"?>
<svg version="1.1" xmlns="http://www.w3.org/2000/svg" width="531" height="125">
<path d="M0 0 C4.79646121 1.79867295 4.79646121 1.79867295 6.10783386 3.90115356 C7.08650576 6.34062746 7.25938012 8.08622686 7.2746582 10.70654297 C7.28419022 11.60782928 7.29372223 12.5091156 7.30354309 13.43771362 C7.30263168 14.40444 7.30172028 15.37116638 7.30078125 16.3671875 C7.30506638 17.36831573 7.3093515 18.36944397 7.31376648 19.40090942 C7.31950585 21.51742802 7.32001294 23.63396635 7.31567383 25.75048828 C7.31251842 28.98113873 7.33596257 32.21086929 7.36132812 35.44140625 C7.36360167 37.49999885 7.36430436 39.5585939 7.36328125 41.6171875 C7.372491 42.57986542 7.38170074 43.54254333 7.39118958 44.53439331 C7.33603145 52.5714273 5.19526956 57.19755748 -0.375 63.0625 C-3.10437706 66.00046359 -5.6609954 68.88486945 -7.9375 72.1875 C-10 75.125 -10 75.125 -12 76.125 C-12.72693904 78.10388961 -13.39816251 80.10454558 -14 82.125 C-14.66 82.125 -15.32 82.125 -16 82.125 C-16.495 84.105 -16.495 84.105 -17 86.125 C-21.76743435 85.51623531 -25.95787797 84.13584036 -30.375 82.3125 C-31.03838379 82.04767822 -31.70176758 81.78285645 -32.38525391 81.51000977 C-35.89112387 80.08830421 -39.14199383 78.51794728 -42.375 76.5625 C-46.74570828 74.8292881 -48.23782796 75.25211458 -52.43359375 76.99609375 C-53.28050781 77.36863281 -54.12742187 77.74117188 -55 78.125 C-57.24867478 78.96190274 -59.4987473 79.79505678 -61.75 80.625 C-64.92242478 81.82040644 -67.72361678 82.94744472 -70.578125 84.78125 C-73.30215832 86.29264913 -74.93498008 86.38771599 -78 86.125 C-78.32871094 85.44695312 -78.65742188 84.76890625 -78.99609375 84.0703125 C-82.2340171 77.73486357 -85.86926588 72.7203292 -90.74609375 67.5546875 C-101.05229214 56.44471281 -101.05229214 56.44471281 -101.23706055 49.9699707 C-101.26346115 49.11180252 -101.28986176 48.25363434 -101.31706238 47.36946106 C-101.35154228 45.97421455 -101.35154228 45.97421455 -101.38671875 44.55078125 C-101.41224319 43.59358688 -101.43776764 42.63639252 -101.46406555 41.65019226 C-101.51614012 39.62013087 -101.56555899 37.5899999 -101.61254883 35.55981445 C-101.68678714 32.46719633 -101.77757812 29.37535033 -101.86914062 26.28320312 C-101.91768983 24.30992074 -101.96524742 22.33661366 -102.01171875 20.36328125 C-102.04077805 19.44323807 -102.06983734 18.52319489 -102.09977722 17.57527161 C-102.3299317 5.70456724 -102.3299317 5.70456724 -98.25 1.1875 C-95.21793587 -0.24430806 -93.32151063 -0.34950152 -90 0.125 C-86.66238955 2.27590451 -85.26529067 3.32912799 -84 7.125 C-83.85284801 8.75067079 -83.75278133 10.38086857 -83.68359375 12.01171875 C-83.64169922 12.94951172 -83.59980469 13.88730469 -83.55664062 14.85351562 C-83.51732422 15.82998047 -83.47800781 16.80644531 -83.4375 17.8125 C-83.39431641 18.80056641 -83.35113281 19.78863281 -83.30664062 20.80664062 C-83.20058346 23.24595546 -83.09852286 25.68537113 -83 28.125 C-81.9275 28.2075 -80.855 28.29 -79.75 28.375 C-75.59491943 29.20601611 -74.48024086 29.78449542 -72 33.125 C-71.01510669 35.21925116 -70.10258094 37.34848692 -69.25 39.5 C-66.91864911 44.789918 -64.89895212 47.82763087 -59.9296875 50.78125 C-55.09571627 54.1474162 -52.72598657 59.27830911 -50.25 64.4375 C-49.77626953 65.40526367 -49.77626953 65.40526367 -49.29296875 66.39257812 C-48.52308292 67.96734459 -47.76075109 69.5458004 -47 71.125 C-46.54109375 70.10019531 -46.0821875 69.07539062 -45.609375 68.01953125 C-44.98995525 66.65868482 -44.37014269 65.29801713 -43.75 63.9375 C-43.44964844 63.26396484 -43.14929688 62.59042969 -42.83984375 61.89648438 C-40.2281183 56.20070015 -37.25186542 51.92069546 -32.1875 48.125 C-27.52747372 44.20259427 -25.24271966 39.44718182 -22.640625 34.015625 C-21.00479992 31.13345701 -19.82251031 29.78999598 -17 28.125 C-16.278125 27.96 -15.55625 27.795 -14.8125 27.625 C-14.214375 27.46 -13.61625 27.295 -13 27.125 C-12.08991804 24.39475412 -11.806922 22.43302002 -11.640625 19.59765625 C-11.54394531 18.28571289 -11.54394531 18.28571289 -11.4453125 16.94726562 C-11.31545261 15.11234539 -11.20078015 13.2762851 -11.1015625 11.43945312 C-10.56746009 4.71866446 -10.56746009 4.71866446 -7.546875 1.55859375 C-3.1471732 -0.91792552 -3.1471732 -0.91792552 0 0 Z M-94 5.125 C-96.04197292 8.18795938 -96.25471902 8.84419666 -96.29052734 12.30175781 C-96.30328705 13.13982971 -96.31604675 13.97790161 -96.32919312 14.84136963 C-96.33141876 15.7444989 -96.33364441 16.64762817 -96.3359375 17.578125 C-96.3425943 18.51170837 -96.3492511 19.44529175 -96.35610962 20.40716553 C-96.36623808 22.38421661 -96.37092658 24.3613019 -96.37060547 26.33837891 C-96.37496363 29.3498653 -96.41123933 32.35986817 -96.44921875 35.37109375 C-96.45509002 37.29426584 -96.45905734 39.21744487 -96.4609375 41.140625 C-96.47530853 42.03565735 -96.48967957 42.9306897 -96.50448608 43.85284424 C-96.45032956 51.33991775 -94.28096415 56.20730741 -88.90625 61.58984375 C-88.35066406 62.16283203 -87.79507812 62.73582031 -87.22265625 63.32617188 C-86.07617018 64.48175704 -84.92773603 65.6354128 -83.77734375 66.78710938 C-79.77729953 70.92172585 -77.35473445 74.86724734 -75 80.125 C-72.22748501 79.00400475 -69.45700057 77.87839797 -66.6875 76.75 C-65.90181641 76.43289062 -65.11613281 76.11578125 -64.30664062 75.7890625 C-63.54931641 75.4796875 -62.79199219 75.1703125 -62.01171875 74.8515625 C-60.96697388 74.42738037 -60.96697388 74.42738037 -59.90112305 73.99462891 C-57.74344424 73.06830428 -57.74344424 73.06830428 -55 71.125 C-55.64651275 64.6598725 -57.34667548 59.29896003 -62.46484375 55.10546875 C-63.40457031 54.41066406 -64.34429687 53.71585938 -65.3125 53 C-72.03408074 47.87321791 -74.82654454 41.73912692 -78 34.125 C-79.32 34.455 -80.64 34.785 -82 35.125 C-81.58974437 41.14208264 -79.51479638 45.97015708 -77.05859375 51.453125 C-76 54.125 -76 54.125 -76 57.125 C-77.88208008 56.83935547 -77.88208008 56.83935547 -80 56.125 C-81.45535771 53.47944292 -82.59923106 51.04294715 -83.6875 48.25 C-84.1508374 47.08633911 -84.1508374 47.08633911 -84.62353516 45.89916992 C-86.9099375 39.90655299 -87.908971 34.54254425 -88 28.125 C-88.15493033 25.70755256 -88.32217562 23.29087128 -88.5 20.875 C-88.62955078 19.1115625 -88.62955078 19.1115625 -88.76171875 17.3125 C-88.84035156 16.260625 -88.91898437 15.20875 -89 14.125 C-89.04769531 13.34125 -89.09539062 12.5575 -89.14453125 11.75 C-89.27855797 9.70882878 -89.27855797 9.70882878 -90 7.125 C-91.93597032 5.61205712 -91.93597032 5.61205712 -94 5.125 Z M-3 5.125 C-5.75333834 7.87833834 -5.3202903 9.60510811 -5.45703125 13.4609375 C-5.51826172 14.75386719 -5.57949219 16.04679687 -5.64257812 17.37890625 C-5.73024581 19.42319035 -5.81142716 21.46712872 -5.87817383 23.51220703 C-6.21135778 33.11685263 -7.8213946 40.49054363 -12 49.125 C-13.04874805 51.77607381 -14.0214924 54.44697919 -15 57.125 C-15.99 57.125 -16.98 57.125 -18 57.125 C-17.53211337 51.74430375 -16.05055929 47.47962674 -13.83984375 42.5546875 C-12.9325179 39.92977272 -12.84793198 37.88184605 -13 35.125 C-14.32 35.125 -15.64 35.125 -17 35.125 C-19.00858901 37.77633749 -20.08089367 40.34719832 -21.21875 43.47265625 C-22.9086099 47.43958807 -25.64139597 49.82619881 -28.9375 52.5 C-35.33428696 58.00053122 -38.06713067 63.05030287 -40 71.125 C-35.6246786 73.39368517 -31.23021649 75.52302183 -26.6875 77.4375 C-25.45580078 77.95763672 -25.45580078 77.95763672 -24.19921875 78.48828125 C-21.85575189 79.39224044 -21.85575189 79.39224044 -19 78.125 C-16.02797988 74.49539924 -16.02797988 74.49539924 -15 70.125 C-14.40703125 69.8775 -13.8140625 69.63 -13.203125 69.375 C-10.6656738 67.93531137 -9.45955898 66.47348507 -7.75 64.125 C-7.22921875 63.42375 -6.7084375 62.7225 -6.171875 62 C-4.82333369 60.21084879 -4.82333369 60.21084879 -5 58.125 C-4.34 58.125 -3.68 58.125 -3 58.125 C-3 57.465 -3 56.805 -3 56.125 C-2.34 56.125 -1.68 56.125 -1 56.125 C1.13363651 52.92454524 1.24672228 52.13870564 1.22705078 48.4699707 C1.22682419 47.05884758 1.22682419 47.05884758 1.22659302 45.61921692 C1.21627045 44.60663315 1.20594788 43.59404938 1.1953125 42.55078125 C1.1924826 41.51181198 1.18965271 40.47284271 1.18673706 39.40238953 C1.17553282 36.08064303 1.15042764 32.75916515 1.125 29.4375 C1.11497052 27.18685285 1.10584462 24.93620148 1.09765625 22.68554688 C1.0755927 17.16527278 1.04211271 11.64515558 1 6.125 C-0.89179203 5.4435177 -0.89179203 5.4435177 -3 5.125 Z " fill="#FDFCFB" transform="translate(501,26.875)"/>
<path d="M0 0 C2.97 0 5.94 0 9 0 C9.62829712 1.17357056 9.62829712 1.17357056 10.26928711 2.37084961 C11.82026725 5.26582588 13.37284046 8.15993558 14.92651367 11.0534668 C15.59935844 12.30735307 16.27156134 13.561584 16.94311523 14.81616211 C17.90701521 16.61662767 18.87319663 18.41585195 19.83984375 20.21484375 C20.42113037 21.29886475 21.00241699 22.38288574 21.60131836 23.49975586 C22.77744456 25.86807344 22.77744456 25.86807344 24 27 C24.99 25.02 25.98 23.04 27 21 C27.66 21 28.32 21 29 21 C29.36738281 19.75863281 29.36738281 19.75863281 29.7421875 18.4921875 C31.19193489 14.46711244 33.0723051 10.86772286 35.125 7.125 C35.49753906 6.43664063 35.87007812 5.74828125 36.25390625 5.0390625 C37.16499526 3.35705202 38.08190315 1.67819564 39 0 C41.97 0 44.94 0 48 0 C48 16.17 48 32.34 48 49 C45.36 49 42.72 49 40 49 C39.67 39.1 39.34 29.2 39 19 C37.370625 21.908125 35.74125 24.81625 34.0625 27.8125 C33.54953369 28.72491455 33.03656738 29.6373291 32.50805664 30.57739258 C32.10449951 31.30079834 31.70094238 32.0242041 31.28515625 32.76953125 C30.87144775 33.50792236 30.45773926 34.24631348 30.03149414 35.00708008 C28.8760093 37.11325355 28.8760093 37.11325355 28 40 C24.535 40.495 24.535 40.495 21 41 C20.55269531 40.16597656 20.10539062 39.33195312 19.64453125 38.47265625 C19.03996094 37.34730469 18.43539062 36.22195312 17.8125 35.0625 C17.22082031 33.96035156 16.62914063 32.85820313 16.01953125 31.72265625 C13.70989602 27.46524354 11.35223588 23.23402459 9 19 C8.67 28.9 8.34 38.8 8 49 C5.13822943 50.43088528 3.06624227 49.59991697 0 49 C-0.91127985 37.77196795 -1.00198226 26.75124677 -0.5625 15.5 C-0.50905592 13.98309776 -0.45631876 12.46617043 -0.40429688 10.94921875 C-0.27762785 7.29915551 -0.14157617 3.64951917 0 0 Z " fill="#F6FEFD" transform="translate(15,35)"/>
<path d="M0 0 C0.886875 0.433125 1.77375 0.86625 2.6875 1.3125 C4.69675805 0.33123444 6.69507511 -0.6724911 8.6875 -1.6875 C15.35907128 -2.7162937 20.95831963 -2.01998186 26.67578125 1.64453125 C32.80132634 6.72338126 35.26462874 12.44561012 36.0703125 20.24609375 C34.7788101 30.59129158 29.18842373 36.57642369 21.8125 43.5 C20.042084 45.19954782 18.27380526 46.90132521 16.5078125 48.60546875 C15.67282227 49.40388184 14.83783203 50.20229492 13.97753906 51.02490234 C11.94327407 53.05699861 10.11402962 55.13259328 8.3046875 57.36328125 C5.21913935 60.84027954 5.21913935 60.84027954 1.6875 61.3125 C0.07421875 60.40625 0.07421875 60.40625 -1.625 58.8125 C-2.30175781 58.17957031 -2.97851562 57.54664063 -3.67578125 56.89453125 C-4.54589844 56.04246094 -5.41601562 55.19039062 -6.3125 54.3125 C-6.91755371 53.72645996 -7.52260742 53.14041992 -8.14599609 52.53662109 C-10.21027071 50.53316307 -12.26344151 48.51901364 -14.3125 46.5 C-15.33790894 45.49453125 -15.33790894 45.49453125 -16.3840332 44.46875 C-17.02042725 43.83324219 -17.65682129 43.19773438 -18.3125 42.54296875 C-18.89 41.96957764 -19.4675 41.39618652 -20.0625 40.80541992 C-21.3125 39.3125 -21.3125 39.3125 -21.3125 37.3125 C-21.9725 37.3125 -22.6325 37.3125 -23.3125 37.3125 C-28.03253683 32.18913439 -31.37075101 26.88647804 -31.5703125 19.82421875 C-30.75805 11.91081284 -27.46127556 6.69200424 -21.41015625 1.6875 C-14.97138705 -2.53307124 -6.93907913 -3.53500258 0 0 Z M-21.6875 9.375 C-24.47927811 12.93226565 -25.20667899 16.15512445 -25.6953125 20.58984375 C-24.30293102 30.49280185 -16.36088338 36.73110808 -9.5625 43.3125 C-8.47173042 44.38317219 -7.38187799 45.45477959 -6.29296875 46.52734375 C-3.64330768 49.13327085 -0.98143194 51.72629604 1.6875 54.3125 C2.16453369 53.89967773 2.64156738 53.48685547 3.13305664 53.06152344 C4.07459595 52.24989746 4.07459595 52.24989746 5.03515625 51.421875 C5.65656494 50.88530273 6.27797363 50.34873047 6.91821289 49.79589844 C8.6875 48.3125 8.6875 48.3125 11.125 46.5625 C11.640625 46.15 12.15625 45.7375 12.6875 45.3125 C12.6875 44.6525 12.6875 43.9925 12.6875 43.3125 C13.3475 43.3125 14.0075 43.3125 14.6875 43.3125 C16.2582864 41.79838885 16.2582864 41.79838885 17.875 39.8125 C19.76782588 37.56650535 21.65319943 35.34889784 23.66796875 33.2109375 C27.25791599 29.37672581 29.54970024 26.82449038 29.6875 21.3125 C29.06875 21.498125 28.45 21.68375 27.8125 21.875 C25.6875 22.3125 25.6875 22.3125 23.6875 21.3125 C23.254375 19.9203125 23.254375 19.9203125 22.8125 18.5 C21.57897123 15.00500183 20.59097822 13.57076083 17.6875 11.3125 C14.55399283 10.04465876 14.55399283 10.04465876 11.6875 9.3125 C11.6875 8.6525 11.6875 7.9925 11.6875 7.3125 C18.03977273 6.09090909 18.03977273 6.09090909 21.0625 7.125 C22.6875 8.3125 22.6875 8.3125 23.6875 10.3125 C24.3475 10.3125 25.0075 10.3125 25.6875 10.3125 C25.8421875 11.67375 25.8421875 11.67375 26 13.0625 C26.69164949 16.33211575 27.50884921 17.84967737 29.6875 20.3125 C30.04523958 16.55623441 29.82306761 14.57320693 28.0625 11.1875 C24.38180452 6.73192126 20.97399596 4.29006058 15.25 3.375 C12.00498968 3.11867145 9.87552741 3.42349793 6.9375 4.8125 C3.37234044 6.45795826 2.30898756 6.55142996 -1.3125 5.3125 C-2.1375 4.961875 -2.9625 4.61125 -3.8125 4.25 C-10.65147829 1.68538314 -16.78451044 4.38970605 -21.6875 9.375 Z " fill="#F8FDFC" transform="translate(451.3125,6.6875)"/>
<path d="M0 0 C2.31 0.33 4.62 0.66 7 1 C7.33 2.32 7.66 3.64 8 5 C8.804375 4.175 9.60875 3.35 10.4375 2.5 C13.84765679 -0.35257191 16.53788145 -0.55999793 20.88671875 -0.296875 C25.26631199 0.31837285 28.10787826 1.65122746 31 5 C31.598125 4.360625 32.19625 3.72125 32.8125 3.0625 C36.5721614 -0.4823236 40.60391203 -0.46398499 45.5546875 -0.40625 C48 0 48 0 51 2.5625 C54.61252234 8.77152277 55.30657126 14.49359622 55.1875 21.5 C55.18685547 22.22058594 55.18621094 22.94117187 55.18554688 23.68359375 C55.14869545 28.21222442 54.73491751 32.53170151 54 37 C51.36 37 48.72 37 46 37 C44.41383935 33.82767871 44.94380206 30.41548687 45 26.9375 C45.05616084 20.86766183 44.87558869 15.01967222 44 9 C42.5613506 9.06032073 41.12388098 9.14920133 39.6875 9.25 C38.88699219 9.29640625 38.08648437 9.3428125 37.26171875 9.390625 C34.22974165 10.20753075 33.60853342 11.3386905 32 14 C31.50051541 16.60162971 31.50051541 16.60162971 31.48828125 19.421875 C31.45283203 20.44667969 31.41738281 21.47148438 31.38085938 22.52734375 C31.35830078 23.59082031 31.33574219 24.65429688 31.3125 25.75 C31.27833984 26.82894531 31.24417969 27.90789062 31.20898438 29.01953125 C31.12659337 31.67958377 31.05741355 34.33931035 31 37 C28.36 37 25.72 37 23 37 C22.98541748 36.3294458 22.97083496 35.6588916 22.95581055 34.96801758 C22.881117 31.91561178 22.78452701 28.86427415 22.6875 25.8125 C22.66494141 24.75740234 22.64238281 23.70230469 22.61914062 22.61523438 C22.5659668 21.08286133 22.5659668 21.08286133 22.51171875 19.51953125 C22.48553467 18.58214111 22.45935059 17.64475098 22.43237305 16.67895508 C21.91788764 13.49123719 20.94176209 11.5690175 19 9 C15.9042893 8.10792821 15.9042893 8.10792821 13 8 C13 8.66 13 9.32 13 10 C12.35256836 10.58942383 11.70513672 11.17884766 11.03808594 11.78613281 C8.53461116 14.50552779 8.47154676 15.78039571 8.390625 19.421875 C8.35839844 20.44667969 8.32617188 21.47148438 8.29296875 22.52734375 C8.27169922 24.12255859 8.27169922 24.12255859 8.25 25.75 C8.22035156 26.82894531 8.19070312 27.90789062 8.16015625 29.01953125 C8.08953064 31.67976244 8.03679804 34.33912102 8 37 C5.36 37 2.72 37 0 37 C0 24.79 0 12.58 0 0 Z " fill="#F7FDFD" transform="translate(110,47)"/>
<path d="M0 0 C2.64 0 5.28 0 8 0 C8.33 9.57 8.66 19.14 9 29 C13.60456147 23.74377648 13.60456147 23.74377648 18.1875 18.46875 C23.0865905 13.14732411 23.0865905 13.14732411 27.875 12.375 C31 13 31 13 33 15 C28.71 19.62 24.42 24.24 20 29 C21.216875 30.65 22.43375 32.3 23.6875 34 C33 46.81916075 33 46.81916075 33 50 C29.92576817 50.35471906 27.05991472 50.52666346 24 50 C20 45.51219512 20 45.51219512 20 42 C19.34 42 18.68 42 18 42 C16.61061923 40.03852126 15.2739589 38.03833424 14 36 C11.94299349 36.59201528 11.94299349 36.59201528 10 38 C9.33323318 40.61605767 9.33323318 40.61605767 9.3125 43.5625 C9.06811989 48.93188011 9.06811989 48.93188011 8 50 C5.36 50 2.72 50 0 50 C0 33.5 0 17 0 0 Z " fill="#FAFDFD" transform="translate(361,34)"/>
<path d="M0 0 C4.02095024 2.83444033 5.87934759 5.13369626 7.45703125 9.82421875 C7.77587891 12.77856445 7.77587891 12.77856445 7.87109375 16 C7.92910156 17.73540039 7.92910156 17.73540039 7.98828125 19.50585938 C8.01921875 20.70404297 8.05015625 21.90222656 8.08203125 23.13671875 C8.14003906 24.96299805 8.14003906 24.96299805 8.19921875 26.82617188 C8.29331127 29.82537103 8.37895334 32.82456698 8.45703125 35.82421875 C3.98350002 35.97129375 1.8187829 35.92737412 -1.54296875 32.82421875 C-2.36796875 33.29859375 -3.19296875 33.77296875 -4.04296875 34.26171875 C-8.81149705 36.39052602 -12.99123121 37.35830335 -18.23046875 36.26171875 C-21.43536411 34.2694865 -23.89767793 32.2302594 -25.54296875 28.82421875 C-26.11566259 24.04054078 -25.22975071 20.77359381 -22.41796875 16.88671875 C-16.20598349 12.43029454 -9.88761496 12.55821547 -2.54296875 12.82421875 C-2.88741756 10.3515511 -2.88741756 10.3515511 -3.54296875 7.82421875 C-7.27413905 5.9586336 -11.7177819 6.23522787 -15.625 7.49609375 C-17.29014624 8.2150571 -18.92071839 9.01309357 -20.54296875 9.82421875 C-23.54296875 5.07421875 -23.54296875 5.07421875 -23.54296875 2.82421875 C-16.41333298 -1.64927821 -7.99895566 -3.69844186 0 0 Z M-15.54296875 20.82421875 C-17.10261325 22.60930661 -17.10261325 22.60930661 -17.54296875 24.82421875 C-16.617481 27.52355801 -16.11923338 28.53608643 -13.54296875 29.82421875 C-10.18181533 30.12298794 -7.89904248 29.95873549 -4.73046875 28.76171875 C-2.17666072 26.88257314 -2.17666072 26.88257314 -1.73046875 23.13671875 C-1.63765625 21.49703125 -1.63765625 21.49703125 -1.54296875 19.82421875 C-8.79335 18.49045275 -8.79335 18.49045275 -15.54296875 20.82421875 Z " fill="#F6FDFD" transform="translate(308.54296875,48.17578125)"/>
<path d="M0 0 C3.95720903 2.70072295 5.88726436 4.91415922 7.08422852 9.67993164 C7.88989683 14.52513878 7.93851222 19.43494718 8.078125 24.3359375 C8.13613281 26.0055957 8.13613281 26.0055957 8.1953125 27.70898438 C8.28903466 30.43864226 8.37474794 33.16830313 8.453125 35.8984375 C3.97959377 36.0455125 1.81487665 36.00159287 -1.546875 32.8984375 C-2.371875 33.3728125 -3.196875 33.8471875 -4.046875 34.3359375 C-9.31164883 36.68628296 -13.36842551 37.72049391 -18.859375 35.6484375 C-24.12701914 32.21834364 -24.12701914 32.21834364 -25.19921875 28.84765625 C-25.71157047 24.78393506 -25.74613939 22.38754101 -24.171875 18.5234375 C-20.62845109 14.98001359 -17.48311829 13.64184763 -12.546875 12.8984375 C-8.82791641 12.95594717 -5.22027068 13.32854621 -1.546875 13.8984375 C-2.206875 11.5884375 -2.866875 9.2784375 -3.546875 6.8984375 C-10.06478892 6.5443456 -14.72208949 6.85941898 -20.546875 9.8984375 C-22.109375 7.5859375 -22.109375 7.5859375 -23.546875 4.8984375 C-22.546875 1.8984375 -22.546875 1.8984375 -19.796875 0.2109375 C-13.63068135 -2.15382955 -6.11029005 -2.64279416 0 0 Z M-16.546875 20.8984375 C-17.79840759 23.23939281 -17.79840759 23.23939281 -17.546875 25.8984375 C-16.09018738 28.35558119 -16.09018738 28.35558119 -13.546875 29.8984375 C-9.62021259 30.58133531 -7.77665091 30.00907035 -4.171875 28.2734375 C-1.2101721 26.11871804 -1.2101721 26.11871804 -1.171875 22.6484375 C-1.295625 21.7409375 -1.419375 20.8334375 -1.546875 19.8984375 C-6.6744495 18.32072227 -11.84388281 18.07664219 -16.546875 20.8984375 Z " fill="#F7FDFD" transform="translate(94.546875,48.1015625)"/>
<path d="M0 0 C3.21311666 2.21453706 5.22644251 4.43791791 6.66015625 8.0234375 C6.97900391 10.31347656 6.97900391 10.31347656 7.07421875 12.7890625 C7.13222656 14.12324219 7.13222656 14.12324219 7.19140625 15.484375 C7.22234375 16.40476562 7.25328125 17.32515625 7.28515625 18.2734375 C7.34316406 19.67722656 7.34316406 19.67722656 7.40234375 21.109375 C7.49640469 23.41386804 7.58205024 25.71835763 7.66015625 28.0234375 C8.32015625 28.3534375 8.98015625 28.6834375 9.66015625 29.0234375 C9.33015625 31.3334375 9.00015625 33.6434375 8.66015625 36.0234375 C3.24477163 36.39266827 3.24477163 36.39266827 0.28515625 34.5234375 C-0.25109375 34.0284375 -0.78734375 33.5334375 -1.33984375 33.0234375 C-2.08234375 33.5184375 -2.82484375 34.0134375 -3.58984375 34.5234375 C-8.52251278 36.9721133 -13.994197 36.79458822 -19.33984375 36.0234375 C-22.69869508 33.98178277 -23.84675188 32.63935301 -24.98828125 28.8984375 C-25.71020666 24.86655217 -25.52678744 22.48229928 -23.96484375 18.6484375 C-20.42141984 15.10501359 -17.27608704 13.76684763 -12.33984375 13.0234375 C-8.62088516 13.08094717 -5.01323943 13.45354621 -1.33984375 14.0234375 C-1.94168124 12.00298308 -2.61290471 10.00232711 -3.33984375 8.0234375 C-5.66580321 6.86045777 -7.12707606 6.85743059 -9.71484375 6.8359375 C-10.48570312 6.82175781 -11.2565625 6.80757812 -12.05078125 6.79296875 C-14.56720153 7.04632847 -16.12700064 7.84669254 -18.33984375 9.0234375 C-20.46484375 8.8984375 -20.46484375 8.8984375 -22.33984375 8.0234375 C-23.58984375 5.9609375 -23.58984375 5.9609375 -24.33984375 4.0234375 C-17.1270325 -0.94538803 -8.59928586 -3.58901747 0 0 Z M-16.33984375 21.0234375 C-17.59137634 23.36439281 -17.59137634 23.36439281 -17.33984375 26.0234375 C-15.88315613 28.48058119 -15.88315613 28.48058119 -13.33984375 30.0234375 C-9.84440091 30.54403537 -7.803948 30.2090792 -4.52734375 28.8984375 C-2.04219827 27.1319552 -2.04219827 27.1319552 -1.52734375 23.8359375 C-1.43453125 22.44375 -1.43453125 22.44375 -1.33984375 21.0234375 C-6.17368727 18.04876457 -11.46645968 18.09940706 -16.33984375 21.0234375 Z " fill="#F5FDFD" transform="translate(194.33984375,47.9765625)"/>
<path d="M0 0 C13.53 0 27.06 0 41 0 C41 2.64 41 5.28 41 8 C36.05 8.33 31.1 8.66 26 9 C25.67 22.2 25.34 35.4 25 49 C22.03 49 19.06 49 16 49 C16 35.47 16 21.94 16 8 C11.05 8 6.1 8 1 8 C0.67 5.36 0.34 2.72 0 0 Z " fill="#F9FEFD" transform="translate(220,35)"/>
<path d="M0 0 C4.33938532 1.48192669 7.71324542 3.96455075 10 8 C10 8.66 10 9.32 10 10 C7.03 10.66 4.06 11.32 1 12 C0.67 11.01 0.34 10.02 0 9 C-5.52255904 7.89823031 -5.52255904 7.89823031 -10.875 9.0625 C-13.64735974 11.59023976 -14.29266951 13.32188143 -15 17 C-14.75923729 20.60272618 -14.75923729 20.60272618 -14 24 C-13.87625 24.78375 -13.7525 25.5675 -13.625 26.375 C-13.41875 26.91125 -13.2125 27.4475 -13 28 C-9.38069302 29.20643566 -6.80768995 29.32268559 -3 29 C-2.01 28.278125 -1.02 27.55625 0 26.8125 C3 25 3 25 4.9296875 25.40234375 C6.875 26.25 6.875 26.25 10 28 C7.77758711 32.70628612 4.79698559 35.16744371 0 37 C-5.91593058 38.50307031 -10.84319786 38.58723231 -16.17578125 35.41796875 C-21.15399169 31.54839618 -24.15157792 27.29892925 -25.0625 21 C-25.32781279 14.60301394 -23.73718384 10.05719139 -19.625 5.1875 C-13.19714693 -0.16904423 -8.25329775 -0.99476834 0 0 Z " fill="#F5FDFD" transform="translate(346,47)"/>
<path d="M0 0 C0.33 0.99 0.66 1.98 1 3 C2.0725 2.34 3.145 1.68 4.25 1 C7.30980686 -0.88295807 8.1335864 -1 12 -1 C12.33 1.64 12.66 4.28 13 7 C11.33984375 7.390625 9.6796875 7.78125 8.01953125 8.171875 C4.85872931 9.46798721 3.29386708 10.36515268 1 13 C0.22603375 16.90789518 0.20917953 20.77541965 0.1875 24.75 C0.16236328 25.82894531 0.13722656 26.90789062 0.11132812 28.01953125 C0.05246701 30.68005377 0.0161796 33.33893151 0 36 C-2.64 36 -5.28 36 -8 36 C-8.33 24.12 -8.66 12.24 -9 0 C-3 -1 -3 -1 0 0 Z " fill="#FBFDFD" transform="translate(269,48)"/>
<path d="M0 0 C2.375 2 2.375 2 4 4 C-0.455 3.01 -0.455 3.01 -5 2 C-5 2.66 -5 3.32 -5 4 C-2.03 4.495 -2.03 4.495 1 5 C3.29612756 20.74487472 3.29612756 20.74487472 3 28 C2.67 28 2.34 28 2 28 C1.01 21.07 0.02 14.14 -1 7 C-1.99 6.67 -2.98 6.34 -4 6 C-5.39560045 8.79120091 -5.21808288 11.20205692 -5.31640625 14.3203125 C-5.35830078 15.57714844 -5.40019531 16.83398438 -5.44335938 18.12890625 C-5.48267578 19.44761719 -5.52199219 20.76632813 -5.5625 22.125 C-5.60569512 23.46485751 -5.64930973 24.80470156 -5.69335938 26.14453125 C-5.79970981 29.42957815 -5.90173808 32.71470281 -6 36 C-6.33 36 -6.66 36 -7 36 C-7.33 28.08 -7.66 20.16 -8 12 C-8.33 12 -8.66 12 -9 12 C-9.33 20.91 -9.66 29.82 -10 39 C-10.33 39 -10.66 39 -11 39 C-11.19376641 34.99868539 -11.37223111 30.99699646 -11.53710938 26.99438477 C-11.59517538 25.63547903 -11.65727511 24.27673897 -11.72363281 22.91821289 C-11.81879725 20.95508596 -11.89781147 18.99119759 -11.9765625 17.02734375 C-12.02893066 15.84906006 -12.08129883 14.67077637 -12.13525391 13.45678711 C-11.95527702 8.85698066 -11.40644145 4.5571316 -8.25 1.0625 C-5.23433139 -0.36156573 -3.29833831 -0.48100767 0 0 Z " fill="#EFFEFE" transform="translate(411,27)"/>
<path d="M0 0 C13.53 0 27.06 0 41 0 C41 2.64 41 5.28 41 8 C36.38 8 31.76 8 27 8 C27 7.67 27 7.34 27 7 C32.94 6.505 32.94 6.505 39 6 C39.33 4.35 39.66 2.7 40 1 C38.93990723 1.1071936 38.93990723 1.1071936 37.85839844 1.21655273 C29.96857924 1.95196815 22.17022594 2.12073696 14.25 2.0625 C13.0640625 2.05798828 11.878125 2.05347656 10.65625 2.04882812 C7.77077772 2.03719316 4.88541787 2.0208484 2 2 C2 3.65 2 5.3 2 7 C3.6045556 6.85851011 5.20863767 6.71164314 6.8125 6.5625 C8.15248047 6.44068359 8.15248047 6.44068359 9.51953125 6.31640625 C12.12743559 6.06510233 12.12743559 6.06510233 15 5 C15 5.66 15 6.32 15 7 C15.66 7 16.32 7 17 7 C16.67 7.99 16.34 8.98 16 10 C16 9.34 16 8.68 16 8 C11.05 8 6.1 8 1 8 C0.67 5.36 0.34 2.72 0 0 Z " fill="#E8FEFF" transform="translate(220,35)"/>
<path d="M0 0 C2.64 0 5.28 0 8 0 C8 6.6 8 13.2 8 20 C7.67 20 7.34 20 7 20 C6.39034801 13.97968656 5.86548228 8.05329744 6 2 C4.68 1.67 3.36 1.34 2 1 C2.185625 1.804375 2.37125 2.60875 2.5625 3.4375 C2.706875 4.283125 2.85125 5.12875 3 6 C2.67 6.33 2.34 6.66 2 7 C1.83958807 10.10085221 1.74036598 13.18187579 1.68359375 16.28515625 C1.66281265 17.21597519 1.64203156 18.14679413 1.62062073 19.1058197 C1.55502069 22.09130182 1.49619198 25.07687484 1.4375 28.0625 C1.3943247 30.08138976 1.35071075 32.1002702 1.30664062 34.11914062 C1.19932871 39.07933297 1.09809112 44.03961709 1 49 C2.98 49 4.96 49 7 49 C7 47.35 7 45.7 7 44 C8.0625 45.875 8.0625 45.875 9 48 C8.67 48.66 8.34 49.32 8 50 C5.36 50 2.72 50 0 50 C0 33.5 0 17 0 0 Z " fill="#E8FEFF" transform="translate(361,34)"/>
<path d="M0 0 C0 1.65 0 3.3 0 5 C-0.33 3.68 -0.66 2.36 -1 1 C-2.32 1.33 -3.64 1.66 -5 2 C-6.12520495 13.01093413 -6.09920291 23.94438708 -6 35 C-4.35 35 -2.7 35 -1 35 C-1 30.38 -1 25.76 -1 21 C-0.67 21 -0.34 21 0 21 C0 25.95 0 30.9 0 36 C-2.64 36 -5.28 36 -8 36 C-8.33 24.12 -8.66 12.24 -9 0 C-3 -1 -3 -1 0 0 Z " fill="#E9FEFF" transform="translate(269,48)"/>
<path d="M0 0 C4.67870436 4.19883724 5.75061318 6.63461228 6.20532227 12.77075195 C6.24197998 13.75003662 6.2786377 14.72932129 6.31640625 15.73828125 C6.37924805 17.33833008 6.37924805 17.33833008 6.44335938 18.97070312 C6.48267578 20.07349609 6.52199219 21.17628906 6.5625 22.3125 C6.60568359 23.43462891 6.64886719 24.55675781 6.69335938 25.71289062 C6.79914787 28.47514569 6.90123672 31.2374863 7 34 C5.02 34 3.04 34 1 34 C0.34 32.68 -0.32 31.36 -1 30 C0.98 30.99 2.96 31.98 5 33 C4.94748036 29.51966801 4.85226395 26.04169756 4.75 22.5625 C4.73582031 21.58861328 4.72164063 20.61472656 4.70703125 19.61132812 C4.50672119 13.62205727 3.60170678 9.10366801 0.84863281 3.75756836 C0 2 0 2 0 0 Z " fill="#E8FEFE" transform="translate(96,50)"/>
<path d="M0 0 C0.33 0 0.66 0 1 0 C1 8.58 1 17.16 1 26 C-1.86177057 27.43088528 -3.93375773 26.59991697 -7 26 C-7 22.04 -7 18.08 -7 14 C-6.67 14 -6.34 14 -6 14 C-6 17.63 -6 21.26 -6 25 C-2.31622777 23.42163702 -2.31622777 23.42163702 -1 22 C-0.93945055 18.47299448 -0.97959593 14.95996128 -1.0390625 11.43359375 C-1.0800996 7.47351388 -0.99038371 3.86868638 0 0 Z " fill="#E3FEFF" transform="translate(22,58)"/>
<path d="M0 0 C0.33 0 0.66 0 1 0 C1.33 5.94 1.66 11.88 2 18 C3.32 17.67 4.64 17.34 6 17 C6.33 15.35 6.66 13.7 7 12 C7.33 12 7.66 12 8 12 C8 14.31 8 16.62 8 19 C5.36 19 2.72 19 0 19 C-1.66413655 15.6717269 -0.81867406 12.00266027 -0.5625 8.375 C-0.51029297 7.57320313 -0.45808594 6.77140625 -0.40429688 5.9453125 C-0.27451629 3.96320897 -0.13790265 1.98155501 0 0 Z " fill="#EAFEFF" transform="translate(156,65)"/>
<path d="M0 0 C0.99 0 1.98 0 3 0 C3 0.66 3 1.32 3 2 C4.58294782 2.05437607 6.16644256 2.09296271 7.75 2.125 C8.63171875 2.14820312 9.5134375 2.17140625 10.421875 2.1953125 C13.13398296 1.98984978 14.6345294 1.26430325 17 0 C19.25 0.375 19.25 0.375 21 1 C16.44140992 3.6211893 12.27329582 5.1991901 7 5 C1.43820225 2.87640449 1.43820225 2.87640449 0 0 Z " fill="#E9FEFF" transform="translate(72,80)"/>
<path d="M0 0 C0.66 0 1.32 0 2 0 C1.34 2.31 0.68 4.62 0 7 C-2.31 7.33 -4.62 7.66 -7 8 C-7.66 7.01 -8.32 6.02 -9 5 C-8.67 4.01 -8.34 3.02 -8 2 C-7.01 3.485 -7.01 3.485 -6 5 C-3.94074861 5.72382467 -3.94074861 5.72382467 -2 6 C-1.34 4.02 -0.68 2.04 0 0 Z " fill="#E7FEFE" transform="translate(43,68)"/>
<path d="M0 0 C0 1.98 0 3.96 0 6 C-0.33 4.68 -0.66 3.36 -1 2 C-1.5775 2.350625 -2.155 2.70125 -2.75 3.0625 C-5.35801776 4.14917407 -6.39417629 3.93065133 -9 3 C-5.92807025 0.26939578 -4.09590633 -0.34132553 0 0 Z " fill="#E9FEFF" transform="translate(281,47)"/>
<path d="M0 0 C0.99 0.33 1.98 0.66 3 1 C2.01 3.64 1.02 6.28 0 9 C-1.32 8.67 -2.64 8.34 -4 8 C-3.01 7.34 -2.02 6.68 -1 6 C-0.26656572 2.93443402 -0.26656572 2.93443402 0 0 Z " fill="#EBFEFF" transform="translate(93,68)"/>
<path d="M0 0 C1.51400391 0.01740234 1.51400391 0.01740234 3.05859375 0.03515625 C4.07050781 0.04417969 5.08242188 0.05320313 6.125 0.0625 C7.29869141 0.07990234 7.29869141 0.07990234 8.49609375 0.09765625 C8.49609375 0.42765625 8.49609375 0.75765625 8.49609375 1.09765625 C1.11147837 3.31304087 1.11147837 3.31304087 -2.00390625 2.22265625 C-2.49890625 1.85140625 -2.99390625 1.48015625 -3.50390625 1.09765625 C-2.50390625 0.09765625 -2.50390625 0.09765625 0 0 Z " fill="#EBFFFF" transform="translate(295.50390625,46.90234375)"/>
</svg>
