<?xml version="1.0" encoding="UTF-8"?>
<svg version="1.1" xmlns="http://www.w3.org/2000/svg" width="531" height="125">
<path d="M0 0 C4.79646121 1.79867295 4.79646121 1.79867295 6.10783386 3.90115356 C7.08650576 6.34062746 7.25938012 8.08622686 7.2746582 10.70654297 C7.28419022 11.60782928 7.29372223 12.5091156 7.30354309 13.43771362 C7.30263168 14.40444 7.30172028 15.37116638 7.30078125 16.3671875 C7.30506638 17.36831573 7.3093515 18.36944397 7.31376648 19.40090942 C7.31950585 21.51742802 7.32001294 23.63396635 7.31567383 25.75048828 C7.31251842 28.98113873 7.33596257 32.21086929 7.36132812 35.44140625 C7.36360167 37.49999885 7.36430436 39.5585939 7.36328125 41.6171875 C7.372491 42.57986542 7.38170074 43.54254333 7.39118958 44.53439331 C7.33603145 52.5714273 5.19526956 57.19755748 -0.375 63.0625 C-3.10437706 66.00046359 -5.6609954 68.88486945 -7.9375 72.1875 C-10 75.125 -10 75.125 -12 76.125 C-12.72693904 78.10388961 -13.39816251 80.10454558 -14 82.125 C-14.66 82.125 -15.32 82.125 -16 82.125 C-16.495 84.105 -16.495 84.105 -17 86.125 C-21.76743435 85.51623531 -25.95787797 84.13584036 -30.375 82.3125 C-31.03838379 82.04767822 -31.70176758 81.78285645 -32.38525391 81.51000977 C-35.89112387 80.08830421 -39.14199383 78.51794728 -42.375 76.5625 C-46.74570828 74.8292881 -48.23782796 75.25211458 -52.43359375 76.99609375 C-53.28050781 77.36863281 -54.12742187 77.74117188 -55 78.125 C-57.24867478 78.96190274 -59.4987473 79.79505678 -61.75 80.625 C-64.92242478 81.82040644 -67.72361678 82.94744472 -70.578125 84.78125 C-73.30215832 86.29264913 -74.93498008 86.38771599 -78 86.125 C-78.32871094 85.44695312 -78.65742188 84.76890625 -78.99609375 84.0703125 C-82.2340171 77.73486357 -85.86926588 72.7203292 -90.74609375 67.5546875 C-101.05229214 56.44471281 -101.05229214 56.44471281 -101.23706055 49.9699707 C-101.26346115 49.11180252 -101.28986176 48.25363434 -101.31706238 47.36946106 C-101.35154228 45.97421455 -101.35154228 45.97421455 -101.38671875 44.55078125 C-101.41224319 43.59358688 -101.43776764 42.63639252 -101.46406555 41.65019226 C-101.51614012 39.62013087 -101.56555899 37.5899999 -101.61254883 35.55981445 C-101.68678714 32.46719633 -101.77757812 29.37535033 -101.86914062 26.28320312 C-101.91768983 24.30992074 -101.96524742 22.33661366 -102.01171875 20.36328125 C-102.04077805 19.44323807 -102.06983734 18.52319489 -102.09977722 17.57527161 C-102.3299317 5.70456724 -102.3299317 5.70456724 -98.25 1.1875 C-95.21793587 -0.24430806 -93.32151063 -0.34950152 -90 0.125 C-86.66238955 2.27590451 -85.26529067 3.32912799 -84 7.125 C-83.85284801 8.75067079 -83.75278133 10.38086857 -83.68359375 12.01171875 C-83.64169922 12.94951172 -83.59980469 13.88730469 -83.55664062 14.85351562 C-83.51732422 15.82998047 -83.47800781 16.80644531 -83.4375 17.8125 C-83.39431641 18.80056641 -83.35113281 19.78863281 -83.30664062 20.80664062 C-83.20058346 23.24595546 -83.09852286 25.68537113 -83 28.125 C-81.9275 28.2075 -80.855 28.29 -79.75 28.375 C-75.59491943 29.20601611 -74.48024086 29.78449542 -72 33.125 C-71.01510669 35.21925116 -70.10258094 37.34848692 -69.25 39.5 C-66.91864911 44.789918 -64.89895212 47.82763087 -59.9296875 50.78125 C-55.09571627 54.1474162 -52.72598657 59.27830911 -50.25 64.4375 C-49.77626953 65.40526367 -49.77626953 65.40526367 -49.29296875 66.39257812 C-48.52308292 67.96734459 -47.76075109 69.5458004 -47 71.125 C-46.54109375 70.10019531 -46.0821875 69.07539062 -45.609375 68.01953125 C-44.98995525 66.65868482 -44.37014269 65.29801713 -43.75 63.9375 C-43.44964844 63.26396484 -43.14929688 62.59042969 -42.83984375 61.89648438 C-40.2281183 56.20070015 -37.25186542 51.92069546 -32.1875 48.125 C-27.52747372 44.20259427 -25.24271966 39.44718182 -22.640625 34.015625 C-21.00479992 31.13345701 -19.82251031 29.78999598 -17 28.125 C-16.278125 27.96 -15.55625 27.795 -14.8125 27.625 C-14.214375 27.46 -13.61625 27.295 -13 27.125 C-12.08991804 24.39475412 -11.806922 22.43302002 -11.640625 19.59765625 C-11.54394531 18.28571289 -11.54394531 18.28571289 -11.4453125 16.94726562 C-11.31545261 15.11234539 -11.20078015 13.2762851 -11.1015625 11.43945312 C-10.56746009 4.71866446 -10.56746009 4.71866446 -7.546875 1.55859375 C-3.1471732 -0.91792552 -3.1471732 -0.91792552 0 0 Z M-94 5.125 C-96.04197292 8.18795938 -96.25471902 8.84419666 -96.29052734 12.30175781 C-96.30328705 13.13982971 -96.31604675 13.97790161 -96.32919312 14.84136963 C-96.33141876 15.7444989 -96.33364441 16.64762817 -96.3359375 17.578125 C-96.3425943 18.51170837 -96.3492511 19.44529175 -96.35610962 20.40716553 C-96.36623808 22.38421661 -96.37092658 24.3613019 -96.37060547 26.33837891 C-96.37496363 29.3498653 -96.41123933 32.35986817 -96.44921875 35.37109375 C-96.45509002 37.29426584 -96.45905734 39.21744487 -96.4609375 41.140625 C-96.47530853 42.03565735 -96.48967957 42.9306897 -96.50448608 43.85284424 C-96.45032956 51.33991775 -94.28096415 56.20730741 -88.90625 61.58984375 C-88.35066406 62.16283203 -87.79507812 62.73582031 -87.22265625 63.32617188 C-86.07617018 64.48175704 -84.92773603 65.6354128 -83.77734375 66.78710938 C-79.77729953 70.92172585 -77.35473445 74.86724734 -75 80.125 C-72.22748501 79.00400475 -69.45700057 77.87839797 -66.6875 76.75 C-65.90181641 76.43289062 -65.11613281 76.11578125 -64.30664062 75.7890625 C-63.54931641 75.4796875 -62.79199219 75.1703125 -62.01171875 74.8515625 C-60.96697388 74.42738037 -60.96697388 74.42738037 -59.90112305 73.99462891 C-57.74344424 73.06830428 -57.74344424 73.06830428 -55 71.125 C-55.64651275 64.6598725 -57.34667548 59.29896003 -62.46484375 55.10546875 C-63.40457031 54.41066406 -64.34429687 53.71585938 -65.3125 53 C-72.03408074 47.87321791 -74.82654454 41.73912692 -78 34.125 C-79.32 34.455 -80.64 34.785 -82 35.125 C-81.58974437 41.14208264 -79.51479638 45.97015708 -77.05859375 51.453125 C-76 54.125 -76 54.125 -76 57.125 C-77.88208008 56.83935547 -77.88208008 56.83935547 -80 56.125 C-81.45535771 53.47944292 -82.59923106 51.04294715 -83.6875 48.25 C-84.1508374 47.08633911 -84.1508374 47.08633911 -84.62353516 45.89916992 C-86.9099375 39.90655299 -87.908971 34.54254425 -88 28.125 C-88.15493033 25.70755256 -88.32217562 23.29087128 -88.5 20.875 C-88.62955078 19.1115625 -88.62955078 19.1115625 -88.76171875 17.3125 C-88.84035156 16.260625 -88.91898437 15.20875 -89 14.125 C-89.04769531 13.34125 -89.09539062 12.5575 -89.14453125 11.75 C-89.27855797 9.70882878 -89.27855797 9.70882878 -90 7.125 C-91.93597032 5.61205712 -91.93597032 5.61205712 -94 5.125 Z M-3 5.125 C-5.75333834 7.87833834 -5.3202903 9.60510811 -5.45703125 13.4609375 C-5.51826172 14.75386719 -5.57949219 16.04679687 -5.64257812 17.37890625 C-5.73024581 19.42319035 -5.81142716 21.46712872 -5.87817383 23.51220703 C-6.21135778 33.11685263 -7.8213946 40.49054363 -12 49.125 C-13.04874805 51.77607381 -14.0214924 54.44697919 -15 57.125 C-15.99 57.125 -16.98 57.125 -18 57.125 C-17.53211337 51.74430375 -16.05055929 47.47962674 -13.83984375 42.5546875 C-12.9325179 39.92977272 -12.84793198 37.88184605 -13 35.125 C-14.32 35.125 -15.64 35.125 -17 35.125 C-19.00858901 37.77633749 -20.08089367 40.34719832 -21.21875 43.47265625 C-22.9086099 47.43958807 -25.64139597 49.82619881 -28.9375 52.5 C-35.33428696 58.00053122 -38.06713067 63.05030287 -40 71.125 C-35.6246786 73.39368517 -31.23021649 75.52302183 -26.6875 77.4375 C-25.45580078 77.95763672 -25.45580078 77.95763672 -24.19921875 78.48828125 C-21.85575189 79.39224044 -21.85575189 79.39224044 -19 78.125 C-16.02797988 74.49539924 -16.02797988 74.49539924 -15 70.125 C-14.40703125 69.8775 -13.8140625 69.63 -13.203125 69.375 C-10.6656738 67.93531137 -9.45955898 66.47348507 -7.75 64.125 C-7.22921875 63.42375 -6.7084375 62.7225 -6.171875 62 C-4.82333369 60.21084879 -4.82333369 60.21084879 -5 58.125 C-4.34 58.125 -3.68 58.125 -3 58.125 C-3 57.465 -3 56.805 -3 56.125 C-2.34 56.125 -1.68 56.125 -1 56.125 C1.13363651 52.92454524 1.24672228 52.13870564 1.22705078 48.4699707 C1.22682419 47.05884758 1.22682419 47.05884758 1.22659302 45.61921692 C1.21627045 44.60663315 1.20594788 43.59404938 1.1953125 42.55078125 C1.1924826 41.51181198 1.18965271 40.47284271 1.18673706 39.40238953 C1.17553282 36.08064303 1.15042764 32.75916515 1.125 29.4375 C1.11497052 27.18685285 1.10584462 24.93620148 1.09765625 22.68554688 C1.0755927 17.16527278 1.04211271 11.64515558 1 6.125 C-0.89179203 5.4435177 -0.89179203 5.4435177 -3 5.125 Z " fill="#3B3D3D" transform="translate(501,26.875)"/>
<path d="M0 0 C2.97 0 5.94 0 9 0 C9.62829712 1.17357056 9.62829712 1.17357056 10.26928711 2.37084961 C11.82026725 5.26582588 13.37284046 8.15993558 14.92651367 11.0534668 C15.59935844 12.30735307 16.27156134 13.561584 16.94311523 14.81616211 C17.90701521 16.61662767 18.87319663 18.41585195 19.83984375 20.21484375 C20.42113037 21.29886475 21.00241699 22.38288574 21.60131836 23.49975586 C22.77744456 25.86807344 22.77744456 25.86807344 24 27 C24.99 25.02 25.98 23.04 27 21 C27.66 21 28.32 21 29 21 C29.36738281 19.75863281 29.36738281 19.75863281 29.7421875 18.4921875 C31.19193489 14.46711244 33.0723051 10.86772286 35.125 7.125 C35.49753906 6.43664063 35.87007812 5.74828125 36.25390625 5.0390625 C37.16499526 3.35705202 38.08190315 1.67819564 39 0 C41.97 0 44.94 0 48 0 C48 16.17 48 32.34 48 49 C45.36 49 42.72 49 40 49 C39.67 39.1 39.34 29.2 39 19 C37.370625 21.908125 35.74125 24.81625 34.0625 27.8125 C33.54953369 28.72491455 33.03656738 29.6373291 32.50805664 30.57739258 C32.10449951 31.30079834 31.70094238 32.0242041 31.28515625 32.76953125 C30.87144775 33.50792236 30.45773926 34.24631348 30.03149414 35.00708008 C28.8760093 37.11325355 28.8760093 37.11325355 28 40 C24.535 40.495 24.535 40.495 21 41 C20.55269531 40.16597656 20.10539062 39.33195312 19.64453125 38.47265625 C19.03996094 37.34730469 18.43539062 36.22195312 17.8125 35.0625 C17.22082031 33.96035156 16.62914063 32.85820313 16.01953125 31.72265625 C13.70989602 27.46524354 11.35223588 23.23402459 9 19 C8.67 28.9 8.34 38.8 8 49 C5.13822943 50.43088528 3.06624227 49.59991697 0 49 C-0.91127985 37.77196795 -1.00198226 26.75124677 -0.5625 15.5 C-0.50905592 13.98309776 -0.45631876 12.46617043 -0.40429688 10.94921875 C-0.27762785 7.29915551 -0.14157617 3.64951917 0 0 Z " fill="#393F3F" transform="translate(15,35)"/>
<path d="M0 0 C2.8125 0.875 2.8125 0.875 4.8125 1.875 C4.8125 2.535 4.8125 3.195 4.8125 3.875 C5.8025 4.205 6.7925 4.535 7.8125 4.875 C7.88872102 11.31616617 7.94117158 17.7572155 7.97729492 24.19873047 C7.99235806 26.38887885 8.01281259 28.57899719 8.03881836 30.76904297 C8.07530989 33.92162503 8.09225139 37.07380737 8.10546875 40.2265625 C8.12095261 41.20178864 8.13643646 42.17701477 8.15238953 43.18179321 C8.15438441 51.28573099 6.05552945 55.89727104 0.4375 61.8125 C-2.29187706 64.75046359 -4.8484954 67.63486945 -7.125 70.9375 C-9.1875 73.875 -9.1875 73.875 -11.1875 74.875 C-11.91443904 76.85388961 -12.58566251 78.85454558 -13.1875 80.875 C-13.8475 80.875 -14.5075 80.875 -15.1875 80.875 C-15.5175 82.195 -15.8475 83.515 -16.1875 84.875 C-21.01842164 84.26273482 -25.27226973 82.84139359 -29.75 81 C-30.39646484 80.74347656 -31.04292969 80.48695312 -31.70898438 80.22265625 C-35.40333661 78.72687579 -38.91911655 77.17102369 -42.1875 74.875 C-42.1875 74.215 -42.1875 73.555 -42.1875 72.875 C-42.8475 72.875 -43.5075 72.875 -44.1875 72.875 C-43.18496464 64.73094731 -39.72313701 56.16661298 -33.640625 50.50390625 C-31.91145456 49.23260786 -30.17084115 47.97669488 -28.41796875 46.73828125 C-24.84892606 43.75678674 -23.75993456 40.12843549 -22.1875 35.875 C-20.09932947 32.04668736 -19.08509327 30.29631929 -15.125 28.4375 C-12.1875 27.875 -12.1875 27.875 -9.1875 28.875 C-9.19910156 28.14796875 -9.21070313 27.4209375 -9.22265625 26.671875 C-9.40176764 6.71374815 -9.40176764 6.71374815 -6 1.5625 C-3.1875 -0.125 -3.1875 -0.125 0 0 Z M-2.1875 3.875 C-4.94083834 6.62833834 -4.5077903 8.35510811 -4.64453125 12.2109375 C-4.70576172 13.50386719 -4.76699219 14.79679687 -4.83007812 16.12890625 C-4.91774581 18.17319035 -4.99892716 20.21712872 -5.06567383 22.26220703 C-5.39885778 31.86685263 -7.0088946 39.24054363 -11.1875 47.875 C-12.23624805 50.52607381 -13.2089924 53.19697919 -14.1875 55.875 C-15.1775 55.875 -16.1675 55.875 -17.1875 55.875 C-16.71961337 50.49430375 -15.23805929 46.22962674 -13.02734375 41.3046875 C-12.1200179 38.67977272 -12.03543198 36.63184605 -12.1875 33.875 C-13.5075 33.875 -14.8275 33.875 -16.1875 33.875 C-18.19608901 36.52633749 -19.26839367 39.09719832 -20.40625 42.22265625 C-22.0961099 46.18958807 -24.82889597 48.57619881 -28.125 51.25 C-34.52178696 56.75053122 -37.25463067 61.80030287 -39.1875 69.875 C-34.8121786 72.14368517 -30.41771649 74.27302183 -25.875 76.1875 C-24.64330078 76.70763672 -24.64330078 76.70763672 -23.38671875 77.23828125 C-21.04325189 78.14224044 -21.04325189 78.14224044 -18.1875 76.875 C-15.21547988 73.24539924 -15.21547988 73.24539924 -14.1875 68.875 C-13.59453125 68.6275 -13.0015625 68.38 -12.390625 68.125 C-9.8531738 66.68531137 -8.64705898 65.22348507 -6.9375 62.875 C-6.41671875 62.17375 -5.8959375 61.4725 -5.359375 60.75 C-4.01083369 58.96084879 -4.01083369 58.96084879 -4.1875 56.875 C-3.5275 56.875 -2.8675 56.875 -2.1875 56.875 C-2.1875 56.215 -2.1875 55.555 -2.1875 54.875 C-1.5275 54.875 -0.8675 54.875 -0.1875 54.875 C1.94613651 51.67454524 2.05922228 50.88870564 2.03955078 47.2199707 C2.03932419 45.80884758 2.03932419 45.80884758 2.03909302 44.36921692 C2.02877045 43.35663315 2.01844788 42.34404938 2.0078125 41.30078125 C2.0049826 40.26181198 2.00215271 39.22284271 1.99923706 38.15238953 C1.98803282 34.83064303 1.96292764 31.50916515 1.9375 28.1875 C1.92747052 25.93685285 1.91834462 23.68620148 1.91015625 21.43554688 C1.8880927 15.91527278 1.85461271 10.39515558 1.8125 4.875 C-0.07929203 4.1935177 -0.07929203 4.1935177 -2.1875 3.875 Z " fill="#6B6A69" transform="translate(500.1875,28.125)"/>
<path d="M0 0 C0.886875 0.433125 1.77375 0.86625 2.6875 1.3125 C4.69675805 0.33123444 6.69507511 -0.6724911 8.6875 -1.6875 C15.35907128 -2.7162937 20.95831963 -2.01998186 26.67578125 1.64453125 C32.80132634 6.72338126 35.26462874 12.44561012 36.0703125 20.24609375 C34.7788101 30.59129158 29.18842373 36.57642369 21.8125 43.5 C20.042084 45.19954782 18.27380526 46.90132521 16.5078125 48.60546875 C15.67282227 49.40388184 14.83783203 50.20229492 13.97753906 51.02490234 C11.94327407 53.05699861 10.11402962 55.13259328 8.3046875 57.36328125 C5.21913935 60.84027954 5.21913935 60.84027954 1.6875 61.3125 C0.07421875 60.40625 0.07421875 60.40625 -1.625 58.8125 C-2.30175781 58.17957031 -2.97851562 57.54664063 -3.67578125 56.89453125 C-4.54589844 56.04246094 -5.41601562 55.19039062 -6.3125 54.3125 C-6.91755371 53.72645996 -7.52260742 53.14041992 -8.14599609 52.53662109 C-10.21027071 50.53316307 -12.26344151 48.51901364 -14.3125 46.5 C-15.33790894 45.49453125 -15.33790894 45.49453125 -16.3840332 44.46875 C-17.02042725 43.83324219 -17.65682129 43.19773438 -18.3125 42.54296875 C-18.89 41.96957764 -19.4675 41.39618652 -20.0625 40.80541992 C-21.3125 39.3125 -21.3125 39.3125 -21.3125 37.3125 C-21.9725 37.3125 -22.6325 37.3125 -23.3125 37.3125 C-28.03253683 32.18913439 -31.37075101 26.88647804 -31.5703125 19.82421875 C-30.75805 11.91081284 -27.46127556 6.69200424 -21.41015625 1.6875 C-14.97138705 -2.53307124 -6.93907913 -3.53500258 0 0 Z M-21.6875 9.375 C-24.47927811 12.93226565 -25.20667899 16.15512445 -25.6953125 20.58984375 C-24.30293102 30.49280185 -16.36088338 36.73110808 -9.5625 43.3125 C-8.47173042 44.38317219 -7.38187799 45.45477959 -6.29296875 46.52734375 C-3.64330768 49.13327085 -0.98143194 51.72629604 1.6875 54.3125 C2.16453369 53.89967773 2.64156738 53.48685547 3.13305664 53.06152344 C4.07459595 52.24989746 4.07459595 52.24989746 5.03515625 51.421875 C5.65656494 50.88530273 6.27797363 50.34873047 6.91821289 49.79589844 C8.6875 48.3125 8.6875 48.3125 11.125 46.5625 C11.640625 46.15 12.15625 45.7375 12.6875 45.3125 C12.6875 44.6525 12.6875 43.9925 12.6875 43.3125 C13.3475 43.3125 14.0075 43.3125 14.6875 43.3125 C16.2582864 41.79838885 16.2582864 41.79838885 17.875 39.8125 C19.76782588 37.56650535 21.65319943 35.34889784 23.66796875 33.2109375 C27.25791599 29.37672581 29.54970024 26.82449038 29.6875 21.3125 C29.06875 21.498125 28.45 21.68375 27.8125 21.875 C25.6875 22.3125 25.6875 22.3125 23.6875 21.3125 C23.254375 19.9203125 23.254375 19.9203125 22.8125 18.5 C21.57897123 15.00500183 20.59097822 13.57076083 17.6875 11.3125 C14.55399283 10.04465876 14.55399283 10.04465876 11.6875 9.3125 C11.6875 8.6525 11.6875 7.9925 11.6875 7.3125 C18.03977273 6.09090909 18.03977273 6.09090909 21.0625 7.125 C22.6875 8.3125 22.6875 8.3125 23.6875 10.3125 C24.3475 10.3125 25.0075 10.3125 25.6875 10.3125 C25.8421875 11.67375 25.8421875 11.67375 26 13.0625 C26.69164949 16.33211575 27.50884921 17.84967737 29.6875 20.3125 C30.04523958 16.55623441 29.82306761 14.57320693 28.0625 11.1875 C24.38180452 6.73192126 20.97399596 4.29006058 15.25 3.375 C12.00498968 3.11867145 9.87552741 3.42349793 6.9375 4.8125 C3.37234044 6.45795826 2.30898756 6.55142996 -1.3125 5.3125 C-2.1375 4.961875 -2.9625 4.61125 -3.8125 4.25 C-10.65147829 1.68538314 -16.78451044 4.38970605 -21.6875 9.375 Z " fill="#373A3A" transform="translate(451.3125,6.6875)"/>
<path d="M0 0 C2.31 0.33 4.62 0.66 7 1 C7.33 2.32 7.66 3.64 8 5 C8.804375 4.175 9.60875 3.35 10.4375 2.5 C13.84765679 -0.35257191 16.53788145 -0.55999793 20.88671875 -0.296875 C25.26631199 0.31837285 28.10787826 1.65122746 31 5 C31.598125 4.360625 32.19625 3.72125 32.8125 3.0625 C36.5721614 -0.4823236 40.60391203 -0.46398499 45.5546875 -0.40625 C48 0 48 0 51 2.5625 C54.61252234 8.77152277 55.30657126 14.49359622 55.1875 21.5 C55.18685547 22.22058594 55.18621094 22.94117187 55.18554688 23.68359375 C55.14869545 28.21222442 54.73491751 32.53170151 54 37 C51.36 37 48.72 37 46 37 C44.41383935 33.82767871 44.94380206 30.41548687 45 26.9375 C45.05616084 20.86766183 44.87558869 15.01967222 44 9 C42.5613506 9.06032073 41.12388098 9.14920133 39.6875 9.25 C38.88699219 9.29640625 38.08648437 9.3428125 37.26171875 9.390625 C34.22974165 10.20753075 33.60853342 11.3386905 32 14 C31.50051541 16.60162971 31.50051541 16.60162971 31.48828125 19.421875 C31.45283203 20.44667969 31.41738281 21.47148438 31.38085938 22.52734375 C31.35830078 23.59082031 31.33574219 24.65429688 31.3125 25.75 C31.27833984 26.82894531 31.24417969 27.90789062 31.20898438 29.01953125 C31.12659337 31.67958377 31.05741355 34.33931035 31 37 C28.36 37 25.72 37 23 37 C22.98541748 36.3294458 22.97083496 35.6588916 22.95581055 34.96801758 C22.881117 31.91561178 22.78452701 28.86427415 22.6875 25.8125 C22.66494141 24.75740234 22.64238281 23.70230469 22.61914062 22.61523438 C22.5659668 21.08286133 22.5659668 21.08286133 22.51171875 19.51953125 C22.48553467 18.58214111 22.45935059 17.64475098 22.43237305 16.67895508 C21.91788764 13.49123719 20.94176209 11.5690175 19 9 C15.9042893 8.10792821 15.9042893 8.10792821 13 8 C13 8.66 13 9.32 13 10 C12.35256836 10.58942383 11.70513672 11.17884766 11.03808594 11.78613281 C8.53461116 14.50552779 8.47154676 15.78039571 8.390625 19.421875 C8.35839844 20.44667969 8.32617188 21.47148438 8.29296875 22.52734375 C8.27169922 24.12255859 8.27169922 24.12255859 8.25 25.75 C8.22035156 26.82894531 8.19070312 27.90789062 8.16015625 29.01953125 C8.08953064 31.67976244 8.03679804 34.33912102 8 37 C5.36 37 2.72 37 0 37 C0 24.79 0 12.58 0 0 Z " fill="#3C4141" transform="translate(110,47)"/>
<path d="M0 0 C2.64 0 5.28 0 8 0 C8.33 9.57 8.66 19.14 9 29 C13.60456147 23.74377648 13.60456147 23.74377648 18.1875 18.46875 C23.0865905 13.14732411 23.0865905 13.14732411 27.875 12.375 C31 13 31 13 33 15 C28.71 19.62 24.42 24.24 20 29 C21.216875 30.65 22.43375 32.3 23.6875 34 C33 46.81916075 33 46.81916075 33 50 C29.92576817 50.35471906 27.05991472 50.52666346 24 50 C20 45.51219512 20 45.51219512 20 42 C19.34 42 18.68 42 18 42 C16.61061923 40.03852126 15.2739589 38.03833424 14 36 C11.94299349 36.59201528 11.94299349 36.59201528 10 38 C9.33323318 40.61605767 9.33323318 40.61605767 9.3125 43.5625 C9.06811989 48.93188011 9.06811989 48.93188011 8 50 C5.36 50 2.72 50 0 50 C0 33.5 0 17 0 0 Z " fill="#424646" transform="translate(361,34)"/>
<path d="M0 0 C4.02095024 2.83444033 5.87934759 5.13369626 7.45703125 9.82421875 C7.77587891 12.77856445 7.77587891 12.77856445 7.87109375 16 C7.92910156 17.73540039 7.92910156 17.73540039 7.98828125 19.50585938 C8.01921875 20.70404297 8.05015625 21.90222656 8.08203125 23.13671875 C8.14003906 24.96299805 8.14003906 24.96299805 8.19921875 26.82617188 C8.29331127 29.82537103 8.37895334 32.82456698 8.45703125 35.82421875 C3.98350002 35.97129375 1.8187829 35.92737412 -1.54296875 32.82421875 C-2.36796875 33.29859375 -3.19296875 33.77296875 -4.04296875 34.26171875 C-8.81149705 36.39052602 -12.99123121 37.35830335 -18.23046875 36.26171875 C-21.43536411 34.2694865 -23.89767793 32.2302594 -25.54296875 28.82421875 C-26.11566259 24.04054078 -25.22975071 20.77359381 -22.41796875 16.88671875 C-16.20598349 12.43029454 -9.88761496 12.55821547 -2.54296875 12.82421875 C-2.88741756 10.3515511 -2.88741756 10.3515511 -3.54296875 7.82421875 C-7.27413905 5.9586336 -11.7177819 6.23522787 -15.625 7.49609375 C-17.29014624 8.2150571 -18.92071839 9.01309357 -20.54296875 9.82421875 C-23.54296875 5.07421875 -23.54296875 5.07421875 -23.54296875 2.82421875 C-16.41333298 -1.64927821 -7.99895566 -3.69844186 0 0 Z M-15.54296875 20.82421875 C-17.10261325 22.60930661 -17.10261325 22.60930661 -17.54296875 24.82421875 C-16.617481 27.52355801 -16.11923338 28.53608643 -13.54296875 29.82421875 C-10.18181533 30.12298794 -7.89904248 29.95873549 -4.73046875 28.76171875 C-2.17666072 26.88257314 -2.17666072 26.88257314 -1.73046875 23.13671875 C-1.63765625 21.49703125 -1.63765625 21.49703125 -1.54296875 19.82421875 C-8.79335 18.49045275 -8.79335 18.49045275 -15.54296875 20.82421875 Z " fill="#404545" transform="translate(308.54296875,48.17578125)"/>
<path d="M0 0 C3.95720903 2.70072295 5.88726436 4.91415922 7.08422852 9.67993164 C7.88989683 14.52513878 7.93851222 19.43494718 8.078125 24.3359375 C8.13613281 26.0055957 8.13613281 26.0055957 8.1953125 27.70898438 C8.28903466 30.43864226 8.37474794 33.16830313 8.453125 35.8984375 C3.97959377 36.0455125 1.81487665 36.00159287 -1.546875 32.8984375 C-2.371875 33.3728125 -3.196875 33.8471875 -4.046875 34.3359375 C-9.31164883 36.68628296 -13.36842551 37.72049391 -18.859375 35.6484375 C-24.12701914 32.21834364 -24.12701914 32.21834364 -25.19921875 28.84765625 C-25.71157047 24.78393506 -25.74613939 22.38754101 -24.171875 18.5234375 C-20.62845109 14.98001359 -17.48311829 13.64184763 -12.546875 12.8984375 C-8.82791641 12.95594717 -5.22027068 13.32854621 -1.546875 13.8984375 C-2.206875 11.5884375 -2.866875 9.2784375 -3.546875 6.8984375 C-10.06478892 6.5443456 -14.72208949 6.85941898 -20.546875 9.8984375 C-22.109375 7.5859375 -22.109375 7.5859375 -23.546875 4.8984375 C-22.546875 1.8984375 -22.546875 1.8984375 -19.796875 0.2109375 C-13.63068135 -2.15382955 -6.11029005 -2.64279416 0 0 Z M-16.546875 20.8984375 C-17.79840759 23.23939281 -17.79840759 23.23939281 -17.546875 25.8984375 C-16.09018738 28.35558119 -16.09018738 28.35558119 -13.546875 29.8984375 C-9.62021259 30.58133531 -7.77665091 30.00907035 -4.171875 28.2734375 C-1.2101721 26.11871804 -1.2101721 26.11871804 -1.171875 22.6484375 C-1.295625 21.7409375 -1.419375 20.8334375 -1.546875 19.8984375 C-6.6744495 18.32072227 -11.84388281 18.07664219 -16.546875 20.8984375 Z " fill="#3E4444" transform="translate(94.546875,48.1015625)"/>
<path d="M0 0 C3.21311666 2.21453706 5.22644251 4.43791791 6.66015625 8.0234375 C6.97900391 10.31347656 6.97900391 10.31347656 7.07421875 12.7890625 C7.13222656 14.12324219 7.13222656 14.12324219 7.19140625 15.484375 C7.22234375 16.40476562 7.25328125 17.32515625 7.28515625 18.2734375 C7.34316406 19.67722656 7.34316406 19.67722656 7.40234375 21.109375 C7.49640469 23.41386804 7.58205024 25.71835763 7.66015625 28.0234375 C8.32015625 28.3534375 8.98015625 28.6834375 9.66015625 29.0234375 C9.33015625 31.3334375 9.00015625 33.6434375 8.66015625 36.0234375 C3.24477163 36.39266827 3.24477163 36.39266827 0.28515625 34.5234375 C-0.25109375 34.0284375 -0.78734375 33.5334375 -1.33984375 33.0234375 C-2.08234375 33.5184375 -2.82484375 34.0134375 -3.58984375 34.5234375 C-8.52251278 36.9721133 -13.994197 36.79458822 -19.33984375 36.0234375 C-22.69869508 33.98178277 -23.84675188 32.63935301 -24.98828125 28.8984375 C-25.71020666 24.86655217 -25.52678744 22.48229928 -23.96484375 18.6484375 C-20.42141984 15.10501359 -17.27608704 13.76684763 -12.33984375 13.0234375 C-8.62088516 13.08094717 -5.01323943 13.45354621 -1.33984375 14.0234375 C-1.94168124 12.00298308 -2.61290471 10.00232711 -3.33984375 8.0234375 C-5.66580321 6.86045777 -7.12707606 6.85743059 -9.71484375 6.8359375 C-10.48570312 6.82175781 -11.2565625 6.80757812 -12.05078125 6.79296875 C-14.56720153 7.04632847 -16.12700064 7.84669254 -18.33984375 9.0234375 C-20.46484375 8.8984375 -20.46484375 8.8984375 -22.33984375 8.0234375 C-23.58984375 5.9609375 -23.58984375 5.9609375 -24.33984375 4.0234375 C-17.1270325 -0.94538803 -8.59928586 -3.58901747 0 0 Z M-16.33984375 21.0234375 C-17.59137634 23.36439281 -17.59137634 23.36439281 -17.33984375 26.0234375 C-15.88315613 28.48058119 -15.88315613 28.48058119 -13.33984375 30.0234375 C-9.84440091 30.54403537 -7.803948 30.2090792 -4.52734375 28.8984375 C-2.04219827 27.1319552 -2.04219827 27.1319552 -1.52734375 23.8359375 C-1.43453125 22.44375 -1.43453125 22.44375 -1.33984375 21.0234375 C-6.17368727 18.04876457 -11.46645968 18.09940706 -16.33984375 21.0234375 Z " fill="#3E4444" transform="translate(194.33984375,47.9765625)"/>
<path d="M0 0 C13.53 0 27.06 0 41 0 C41 2.64 41 5.28 41 8 C36.05 8.33 31.1 8.66 26 9 C25.67 22.2 25.34 35.4 25 49 C22.03 49 19.06 49 16 49 C16 35.47 16 21.94 16 8 C11.05 8 6.1 8 1 8 C0.67 5.36 0.34 2.72 0 0 Z " fill="#393F3F" transform="translate(220,35)"/>
<path d="M0 0 C4.33938532 1.48192669 7.71324542 3.96455075 10 8 C10 8.66 10 9.32 10 10 C7.03 10.66 4.06 11.32 1 12 C0.67 11.01 0.34 10.02 0 9 C-5.52255904 7.89823031 -5.52255904 7.89823031 -10.875 9.0625 C-13.64735974 11.59023976 -14.29266951 13.32188143 -15 17 C-14.75923729 20.60272618 -14.75923729 20.60272618 -14 24 C-13.87625 24.78375 -13.7525 25.5675 -13.625 26.375 C-13.41875 26.91125 -13.2125 27.4475 -13 28 C-9.38069302 29.20643566 -6.80768995 29.32268559 -3 29 C-2.01 28.278125 -1.02 27.55625 0 26.8125 C3 25 3 25 4.9296875 25.40234375 C6.875 26.25 6.875 26.25 10 28 C7.77758711 32.70628612 4.79698559 35.16744371 0 37 C-5.91593058 38.50307031 -10.84319786 38.58723231 -16.17578125 35.41796875 C-21.15399169 31.54839618 -24.15157792 27.29892925 -25.0625 21 C-25.32781279 14.60301394 -23.73718384 10.05719139 -19.625 5.1875 C-13.19714693 -0.16904423 -8.25329775 -0.99476834 0 0 Z " fill="#3D4242" transform="translate(346,47)"/>
<path d="M0 0 C0.33 0.99 0.66 1.98 1 3 C2.0725 2.34 3.145 1.68 4.25 1 C7.30980686 -0.88295807 8.1335864 -1 12 -1 C12.33 1.64 12.66 4.28 13 7 C11.33984375 7.390625 9.6796875 7.78125 8.01953125 8.171875 C4.85872931 9.46798721 3.29386708 10.36515268 1 13 C0.22603375 16.90789518 0.20917953 20.77541965 0.1875 24.75 C0.16236328 25.82894531 0.13722656 26.90789062 0.11132812 28.01953125 C0.05246701 30.68005377 0.0161796 33.33893151 0 36 C-2.64 36 -5.28 36 -8 36 C-8.33 24.12 -8.66 12.24 -9 0 C-3 -1 -3 -1 0 0 Z " fill="#454B4B" transform="translate(269,48)"/>
<path d="M0 0 C3 1.125 3 1.125 5 2.125 C4.67 3.115 4.34 4.105 4 5.125 C4 4.465 4 3.805 4 3.125 C2.7625 2.8775 1.525 2.63 0.25 2.375 C-0.44609375 2.23578125 -1.1421875 2.0965625 -1.859375 1.953125 C-4.16221478 1.93752306 -4.16221478 1.93752306 -6.08203125 3.78320312 C-8.39767898 6.61055713 -8.59748511 8.15226673 -8.828125 11.765625 C-8.90546875 12.83554687 -8.9828125 13.90546875 -9.0625 15.0078125 C-9.1553125 16.67457031 -9.1553125 16.67457031 -9.25 18.375 C-9.32734375 19.50164063 -9.4046875 20.62828125 -9.484375 21.7890625 C-9.67271368 24.56705803 -9.84393626 27.34503524 -10 30.125 C-13.01513672 30.39355469 -13.01513672 30.39355469 -16.03027344 30.66210938 C-18.32010602 31.00257943 -18.32010602 31.00257943 -20.25 33.625 C-21.94668765 36.83962059 -21.94668765 36.83962059 -22.73828125 39.20703125 C-24.67928258 44.45969361 -26.74794098 46.93882399 -31.3125 50.25 C-38.89660799 55.98630658 -43.0846602 64.85195243 -45 74.125 C-44.34 74.455 -43.68 74.785 -43 75.125 C-44.051875 75.16625 -45.10375 75.2075 -46.1875 75.25 C-51.66195567 75.87677131 -56.20117228 78.45356489 -61.046875 80.9453125 C-64 82.125 -64 82.125 -68 81.125 C-62.06 78.485 -56.12 75.845 -50 73.125 C-51.051875 70.4025 -52.10375 67.68 -53.1875 64.875 C-53.5074292 64.02389648 -53.8273584 63.17279297 -54.15698242 62.29589844 C-56.03233118 57.60113268 -57.75017544 55.09033527 -62 52.125 C-62 51.465 -62 50.805 -62 50.125 C-63.32 49.465 -64.64 48.805 -66 48.125 C-61.80088472 48.125 -60.27208751 49.76867052 -57.20703125 52.50390625 C-52.61914768 57.9525255 -49.91215222 64.67334362 -47 71.125 C-46.54109375 70.10019531 -46.0821875 69.07539062 -45.609375 68.01953125 C-44.98995525 66.65868482 -44.37014269 65.29801713 -43.75 63.9375 C-43.44964844 63.26396484 -43.14929688 62.59042969 -42.83984375 61.89648438 C-40.2281183 56.20070015 -37.25186542 51.92069546 -32.1875 48.125 C-27.52747372 44.20259427 -25.24271966 39.44718182 -22.640625 34.015625 C-21.00479992 31.13345701 -19.82251031 29.78999598 -17 28.125 C-16.278125 27.96 -15.55625 27.795 -14.8125 27.625 C-14.214375 27.46 -13.61625 27.295 -13 27.125 C-12.08991804 24.39475412 -11.806922 22.43302002 -11.640625 19.59765625 C-11.54394531 18.28571289 -11.54394531 18.28571289 -11.4453125 16.94726562 C-11.31545261 15.11234539 -11.20078015 13.2762851 -11.1015625 11.43945312 C-10.56746009 4.71866446 -10.56746009 4.71866446 -7.546875 1.55859375 C-3.1471732 -0.91792552 -3.1471732 -0.91792552 0 0 Z " fill="#FEFCF8" transform="translate(501,26.875)"/>
<path d="M0 0 C3.33761045 2.15090451 4.73470933 3.20412799 6 7 C6.14715199 8.62567079 6.24721867 10.25586857 6.31640625 11.88671875 C6.35830078 12.82451172 6.40019531 13.76230469 6.44335938 14.72851562 C6.48267578 15.70498047 6.52199219 16.68144531 6.5625 17.6875 C6.60568359 18.67556641 6.64886719 19.66363281 6.69335938 20.68164062 C6.79941654 23.12095546 6.90147714 25.56037113 7 28 C8.0725 28.0825 9.145 28.165 10.25 28.25 C14.39208706 29.07841741 15.49910472 29.69926885 18 33 C19.484375 35.7265625 19.484375 35.7265625 20.75 38.625 C21.17796875 39.58664063 21.6059375 40.54828125 22.046875 41.5390625 C23 44 23 44 23 46 C22.34 46 21.68 46 21 46 C20.55269531 45.01257813 20.10539062 44.02515625 19.64453125 43.0078125 C19.03471892 41.713134 18.4239937 40.41888521 17.8125 39.125 C17.52052734 38.47402344 17.22855469 37.82304688 16.92773438 37.15234375 C15.45907249 34.08868347 14.44329592 32.25117839 11.44921875 30.5546875 C8.93089048 29.88955926 8.93089048 29.88955926 6 30 C5.87882812 28.96101563 5.75765625 27.92203125 5.6328125 26.8515625 C4.54755673 15.27453756 4.54755673 15.27453756 2 4 C-0.73905345 2.63047327 -2.97087332 2.87378639 -6 3 C-6.99 3.495 -6.99 3.495 -8 4 C-8.92735074 6.78205221 -9.13577853 8.49968816 -9.16113281 11.3762207 C-9.17074036 12.2575618 -9.1803479 13.13890289 -9.19024658 14.04695129 C-9.19449646 14.99696518 -9.19874634 15.94697906 -9.203125 16.92578125 C-9.20882507 17.90612839 -9.21452515 18.88647552 -9.22039795 19.89653015 C-9.22984604 21.97194337 -9.23638117 24.04737158 -9.24023438 26.12280273 C-9.24993056 29.28981884 -9.28095213 32.45618335 -9.3125 35.62304688 C-9.31903121 37.64062115 -9.32428122 39.65820006 -9.328125 41.67578125 C-9.3404718 42.61972244 -9.3528186 43.56366364 -9.36553955 44.53620911 C-9.33907447 52.39167539 -7.25079839 57.00462101 -1.8125 62.75 C2 66.78918919 2 66.78918919 2 69 C2.66 69 3.32 69 4 69 C8.06436802 73.47080482 11.13517038 78.71108377 14 84 C14.763125 83.649375 15.52625 83.29875 16.3125 82.9375 C19 82 19 82 22 83 C18.41659212 85.45719398 16.30874796 86.17379824 12 86 C11.67128906 85.32195312 11.34257812 84.64390625 11.00390625 83.9453125 C7.7659829 77.60986357 4.13073412 72.5953292 -0.74609375 67.4296875 C-11.05229214 56.31971281 -11.05229214 56.31971281 -11.23706055 49.8449707 C-11.26346115 48.98680252 -11.28986176 48.12863434 -11.31706238 47.24446106 C-11.35154228 45.84921455 -11.35154228 45.84921455 -11.38671875 44.42578125 C-11.41224319 43.46858688 -11.43776764 42.51139252 -11.46406555 41.52519226 C-11.51614012 39.49513087 -11.56555899 37.4649999 -11.61254883 35.43481445 C-11.68678714 32.34219633 -11.77757812 29.25035033 -11.86914062 26.15820312 C-11.91768983 24.18492074 -11.96524742 22.21161366 -12.01171875 20.23828125 C-12.04077805 19.31823807 -12.06983734 18.39819489 -12.09977722 17.45027161 C-12.3299317 5.57956724 -12.3299317 5.57956724 -8.25 1.0625 C-5.21793587 -0.36930806 -3.32151063 -0.47450152 0 0 Z " fill="#F5FEFD" transform="translate(411,27)"/>
<path d="M0 0 C3.39023233 1.42468907 3.66274411 1.41740679 7.375 0 C8.550625 -0.556875 9.72625 -1.11375 10.9375 -1.6875 C16.02101497 -2.59921736 19.86046024 -2.08421721 24.3125 0.5625 C27.03985111 2.48961037 29.41589065 4.2692813 30.9375 7.3125 C30.6075 8.3025 30.2775 9.2925 29.9375 10.3125 C29.4425 9.405 28.9475 8.4975 28.4375 7.5625 C25.77076153 3.62321265 22.50143142 1.58783409 17.9375 0.3125 C13.94766538 0.16181659 10.40557098 0.56896682 6.82421875 2.3828125 C4.17375065 3.68884026 2.73193196 3.13038253 -0.0625 2.3125 C-0.825625 1.94125 -1.58875 1.57 -2.375 1.1875 C-7.09741126 -0.35002925 -11.3539198 0.53587263 -15.8125 2.5625 C-21.07901454 6.65867798 -22.53230747 10.06239975 -23.375 16.51953125 C-22.28745552 26.23946002 -14.43455718 32.41173477 -7.8125 38.8125 C-6.76990672 39.83499353 -5.72823155 40.8584241 -4.6875 41.8828125 C-2.15633113 44.37027137 0.38704041 46.8448062 2.9375 49.3125 C3.39640625 48.90257812 3.8553125 48.49265625 4.328125 48.0703125 C4.94171875 47.53148437 5.5553125 46.99265625 6.1875 46.4375 C6.79078125 45.90382812 7.3940625 45.37015625 8.015625 44.8203125 C9.91168746 43.3327513 11.75040005 42.30927564 13.9375 41.3125 C12.80285757 44.7164273 11.2780824 45.85958114 8.5078125 48.03125 C6.87205212 49.36590026 5.41974823 50.8111493 3.9375 52.3125 C-2.07022775 47.29785293 -7.72095369 41.97301206 -13.3125 36.5 C-14.2096875 35.64857422 -15.106875 34.79714844 -16.03125 33.91992188 C-21.10636706 28.93217584 -25.08614022 24.56373637 -26.0625 17.3125 C-25.80544132 10.74515159 -23.38368774 6.60081262 -18.8515625 1.91015625 C-13.37048314 -2.98451942 -6.44125328 -2.89606737 0 0 Z " fill="#F4FDFD" transform="translate(450.0625,10.6875)"/>
<path d="M0 0 C0.33 0.99 0.66 1.98 1 3 C1.66 3 2.32 3 3 3 C3.99 5.64 4.98 8.28 6 11 C6.66 9.68 7.32 8.36 8 7 C9.17284363 13.23161495 9.26909549 17.30544657 6 23 C1.14121801 29.619594 1.14121801 29.619594 -3 31 C-1.66338822 28.04912279 -0.15046114 25.91682966 2.0625 23.5625 C4.52270361 20.78504386 5.76868102 18.81676309 6 15 C5.01 15.33 4.02 15.66 3 16 C-0.66694861 13.55536759 -0.67175709 12.06774391 -2 8 C-4.31041382 4.76542065 -7.27007179 4.07753482 -11 3 C-11 1.68 -11 0.36 -11 -1 C-6.73449853 -2.25455926 -4.04362487 -1.8380113 0 0 Z " fill="#1D1F1F" transform="translate(474,14)"/>
<path d="M0 0 C2.18137212 3.27205818 2.26011472 3.95103493 1.9375 7.6875 C1.88464844 8.49574219 1.83179688 9.30398437 1.77734375 10.13671875 C-0.49758578 18.51623305 -6.86393143 24.21700012 -12.9375 30.0625 C-14.5115018 31.5926002 -16.08316079 33.12511451 -17.65234375 34.66015625 C-18.77165283 35.75287842 -18.77165283 35.75287842 -19.91357422 36.86767578 C-22.3328345 39.3401564 -24.50779821 41.94464496 -26.61547852 44.68530273 C-28.34756148 46.33003325 -29.65179907 46.68949654 -32 47 C-33.61328125 46.09375 -33.61328125 46.09375 -35.3125 44.5 C-35.98925781 43.86964844 -36.66601562 43.23929688 -37.36328125 42.58984375 C-43.28733649 36.77110505 -49.16552055 30.90854999 -55 25 C-54.67 24.34 -54.34 23.68 -54 23 C-53.38479492 23.64138916 -52.76958984 24.28277832 -52.13574219 24.94360352 C-49.84964945 27.31485342 -47.55274874 29.67446976 -45.24755859 32.02709961 C-44.25177273 33.04804798 -43.26051809 34.07343622 -42.27392578 35.10327148 C-40.85573503 36.58203823 -39.42206754 38.04412415 -37.984375 39.50390625 C-37.12553711 40.38892822 -36.26669922 41.2739502 -35.38183594 42.18579102 C-33.2371367 44.17368915 -33.2371367 44.17368915 -31.03222656 44.09985352 C-28.07036389 42.49687522 -25.84484842 40.27224119 -23.5 37.8984375 C-22.98244141 37.38374908 -22.46488281 36.86906067 -21.93164062 36.33877563 C-20.8387552 35.24792949 -19.74964039 34.15329441 -18.6640625 33.05517578 C-17.01614758 31.39130394 -15.35299362 29.74390987 -13.6875 28.09765625 C-12.62403773 27.03220961 -11.56150749 25.9658317 -10.5 24.8984375 C-10.00822266 24.41273285 -9.51644531 23.9270282 -9.00976562 23.42660522 C-3.85412902 18.16663365 -0.58714935 13.06407304 -0.25 5.5625 C-0.16492188 3.98662109 -0.16492188 3.98662109 -0.078125 2.37890625 C-0.03945313 1.20134766 -0.03945313 1.20134766 0 0 Z " fill="#FDFCF8" transform="translate(485,21)"/>
<path d="M0 0 C1.4540625 0.0309375 1.4540625 0.0309375 2.9375 0.0625 C3.39898437 1.0525 3.86046875 2.0425 4.3359375 3.0625 C8.55776801 11.73327093 12.6113672 17.72217302 20.9375 23.0625 C20.6075 23.7225 20.2775 24.3825 19.9375 25.0625 C18.15895644 23.67650426 16.38995191 22.27826268 14.625 20.875 C13.63886719 20.09769531 12.65273438 19.32039063 11.63671875 18.51953125 C7.73411284 14.9670868 5.82075734 11.03416351 3.75 6.25 C3.23373047 5.06470703 3.23373047 5.06470703 2.70703125 3.85546875 C2.32611328 2.96794922 2.32611328 2.96794922 1.9375 2.0625 C0.9475 2.0625 -0.0425 2.0625 -1.0625 2.0625 C-0.65166567 8.08807021 1.44046327 12.83545134 3.9765625 18.29296875 C4.97239132 21.16306075 5.03597081 22.2898538 3.9375 25.0625 C2.08203125 24.8046875 2.08203125 24.8046875 -0.0625 24.0625 C-1.36328125 22.3203125 -1.36328125 22.3203125 -2.375 20.1875 C-2.72175781 19.48882812 -3.06851562 18.79015625 -3.42578125 18.0703125 C-4.0625 16.0625 -4.0625 16.0625 -3.0625 13.0625 C-1.4125 16.3625 0.2375 19.6625 1.9375 23.0625 C1.50167549 17.68733098 -0.6266318 13.49390817 -3.00390625 8.74609375 C-4.10993462 5.94225061 -4.35082606 4.0453641 -4.0625 1.0625 C-3.0625 0.0625 -3.0625 0.0625 0 0 Z " fill="#FDFDF8" transform="translate(421.0625,59.9375)"/>
<path d="M0 0 C0.78375 0.04125 1.5675 0.0825 2.375 0.125 C4.49615604 3.53758542 4.49615604 3.53758542 3.95947266 6.13964844 C3.6557373 6.8309082 3.35200195 7.52216797 3.0390625 8.234375 C2.71679688 8.98847656 2.39453125 9.74257812 2.0625 10.51953125 C1.5365625 11.68548828 1.5365625 11.68548828 1 12.875 C0.48566406 14.06416016 0.48566406 14.06416016 -0.0390625 15.27734375 C-0.88714637 17.23264822 -1.75427477 19.17967242 -2.625 21.125 C-2.295 21.455 -1.965 21.785 -1.625 22.125 C-0.635 20.805 0.355 19.485 1.375 18.125 C1.045 20.105 0.715 22.085 0.375 24.125 C-1.5625 24.6875 -1.5625 24.6875 -3.625 25.125 C-3.955 24.795 -4.285 24.465 -4.625 24.125 C-4.28141052 18.74209813 -2.66630396 14.4590081 -0.46484375 9.5546875 C0.4424821 6.92977272 0.52706802 4.88184605 0.375 2.125 C-3.02414975 3.25804992 -3.67754451 4.25018475 -5.625 7.125 C-4.53409091 0.21590909 -4.53409091 0.21590909 0 0 Z " fill="#FEFBF9" transform="translate(486.625,59.875)"/>
<path d="M0 0 C2.52245164 3.78367747 2.08148574 5.46118193 1.47265625 9.79296875 C0.8463537 12.71743933 -0.1963907 14.61665914 -2 17 C-2.39703125 17.52722656 -2.7940625 18.05445312 -3.203125 18.59765625 C-5.37200161 21.3610141 -6.60902691 22.86967564 -10 24 C-8.66338822 21.04912279 -7.15046114 18.91682966 -4.9375 16.5625 C-2.47729639 13.78504386 -1.23131898 11.81676309 -1 8 C-1.99 8.33 -2.98 8.66 -4 9 C-4.99 8.34 -5.98 7.68 -7 7 C-7.1875 4.375 -7.1875 4.375 -7 2 C-6.71125 2.639375 -6.4225 3.27875 -6.125 3.9375 C-5.17176549 6.15206079 -5.17176549 6.15206079 -3 7 C-3 5.35 -3 3.7 -3 2 C-2.34 2.66 -1.68 3.32 -1 4 C-0.67 2.68 -0.34 1.36 0 0 Z " fill="#F9FDFB" transform="translate(481,21)"/>
<path d="M0 0 C3.04557501 3.62568454 6.21940773 8.1865736 5.83740234 13.08496094 C4.68764494 15.71431868 3.48044636 16.07018785 0.8515625 17.140625 C0.01109375 17.48867187 -0.829375 17.83671875 -1.6953125 18.1953125 C-2.57960938 18.54335937 -3.46390625 18.89140625 -4.375 19.25 C-5.2515625 19.61351563 -6.128125 19.97703125 -7.03125 20.3515625 C-13.5428219 23 -13.5428219 23 -17 23 C-17.33 21.35 -17.66 19.7 -18 18 C-17.01 18.99 -16.02 19.98 -15 21 C-9.06 18.36 -3.12 15.72 3 13 C2.23137573 8.38825436 1.9207712 6.71349098 0 3 C0 2.01 0 1.02 0 0 Z " fill="#FEFBF9" transform="translate(442,85)"/>
<path d="M0 0 C1.31223496 3.93670488 0.24296256 6.12488144 -1 10 C0.87383903 10.79441072 2.74912886 11.58539974 4.625 12.375 C5.66914063 12.81585938 6.71328125 13.25671875 7.7890625 13.7109375 C13.23134524 16.07878271 13.23134524 16.07878271 19 17 C19.33 16.01 19.66 15.02 20 14 C20.33 14.99 20.66 15.98 21 17 C20.34 17.99 19.68 18.98 19 20 C13.8307147 19.33673121 9.37748635 17.08075343 4.6875 14.9375 C3.85154297 14.56044922 3.01558594 14.18339844 2.15429688 13.79492188 C0.10072738 12.86788193 -1.95056287 11.93613122 -4 11 C-3.52269162 9.5410574 -3.04308958 8.08286504 -2.5625 6.625 C-2.29566406 5.81289062 -2.02882813 5.00078125 -1.75390625 4.1640625 C-1 2 -1 2 0 0 Z " fill="#FDFBF9" transform="translate(463,88)"/>
<path d="M0 0 C0.33 0.66 0.66 1.32 1 2 C2.093125 2.12375 3.18625 2.2475 4.3125 2.375 C8.54905129 3.09305954 9.30936848 3.79506266 12 7 C13.484375 9.7265625 13.484375 9.7265625 14.75 12.625 C15.17796875 13.58664063 15.6059375 14.54828125 16.046875 15.5390625 C17 18 17 18 17 20 C16.34 20 15.68 20 15 20 C14.55269531 19.01257813 14.10539062 18.02515625 13.64453125 17.0078125 C13.03471892 15.713134 12.4239937 14.41888521 11.8125 13.125 C11.37454102 12.14853516 11.37454102 12.14853516 10.92773438 11.15234375 C9.45907249 8.08868347 8.44329592 6.25117839 5.44921875 4.5546875 C2.93089048 3.88955926 2.93089048 3.88955926 0 4 C0 2.68 0 1.36 0 0 Z " fill="#FDFDFC" transform="translate(417,53)"/>
<path d="M0 0 C0.33 0.99 0.66 1.98 1 3 C1.66 3 2.32 3 3 3 C2.67 3.99 2.34 4.98 2 6 C1.2575 5.071875 1.2575 5.071875 0.5 4.125 C-2.88221437 1.25011778 -5.67257085 0.86548583 -10 0 C-10 0.66 -10 1.32 -10 2 C-7.69 2.66 -5.38 3.32 -3 4 C-5 5 -5 5 -8.125 4.0625 C-9.07375 3.711875 -10.0225 3.36125 -11 3 C-11 1.68 -11 0.36 -11 -1 C-6.73449853 -2.25455926 -4.04362487 -1.8380113 0 0 Z " fill="#EFFDFE" transform="translate(474,14)"/>
<path d="M0 0 C3.375 -0.125 3.375 -0.125 7 0 C7.66 0.66 8.32 1.32 9 2 C5.04 6.29 1.08 10.58 -3 15 C-3.66 14.67 -4.32 14.34 -5 14 C-1.7 10.37 1.6 6.74 5 3 C2.03 2.505 2.03 2.505 -1 2 C-0.67 1.34 -0.34 0.68 0 0 Z " fill="#F1FEFF" transform="translate(385,47)"/>
<path d="M0 0 C2.8842454 0.34485543 3.8207818 0.78255407 5.703125 3.06640625 C6.21359375 3.89011719 6.7240625 4.71382812 7.25 5.5625 C8.03117187 6.80193359 8.03117187 6.80193359 8.828125 8.06640625 C9.21484375 8.70449219 9.6015625 9.34257812 10 10 C9.34 10.66 8.68 11.32 8 12 C7.4121875 10.700625 7.4121875 10.700625 6.8125 9.375 C4.86106043 5.74128495 2.71596841 3.08299117 0 0 Z " fill="#F1FDFE" transform="translate(476,9)"/>
<path d="M0 0 C0.33 0.66 0.66 1.32 1 2 C0.29875 2.391875 -0.4025 2.78375 -1.125 3.1875 C-4.36074432 5.22742577 -7.10257782 7.50686929 -10 10 C-8.64844718 5.57673622 -6.80109562 3.59587018 -3 1 C-2.01 0.67 -1.02 0.34 0 0 Z " fill="#ADB9B9" transform="translate(334,47)"/>
</svg>
